<?xml version="1.0" encoding="UTF-8"?>
<svg width="81px" height="94px" viewBox="0 0 81 94" version="1.1" xmlns="http://www.w3.org/2000/svg" xmlns:xlink="http://www.w3.org/1999/xlink">
    <!-- Generator: Sketch 44 (41411) - http://www.bohemiancoding.com/sketch -->
    <title>logo</title>
    <desc>Created with Sketch.</desc>
    <defs></defs>
    <g id="Page-1" stroke="none" stroke-width="1" fill="none" fill-rule="evenodd">
        <g id="m_at_page_1" transform="translate(-920.000000, -68.000000)" fill="#161616">
            <g id="logo" transform="translate(920.000000, 68.000000)">
                <path d="M29.170418,27.6376387 C29.170418,5.01273088 46.6205788,0 46.6205788,0 C46.6205788,0 46.6205788,41.2140192 46.6205788,61.1447774 C46.6205788,93.4697848 29.170418,94 29.170418,94 L29.170418,27.6376387 Z M54.4340836,0 L81,0 L81,26.2265193 C81,26.2265193 73.7641097,20.1677815 69.2084016,11.9055284 C64.6526936,3.64327522 54.4340836,0 54.4340836,0 Z M26.5659164,0 C26.5659164,0 16.3473064,3.64327522 11.7915984,11.9055284 C7.23589034,20.1677815 0,26.2265193 0,26.2265193 L0,0 L26.5659164,0 Z" id="Combined-Shape"></path>
            </g>
        </g>
    </g>
</svg>