<?xml version="1.0" encoding="UTF-8"?>
<svg width="143px" height="135px" viewBox="0 0 143 135" version="1.1" xmlns="http://www.w3.org/2000/svg" xmlns:xlink="http://www.w3.org/1999/xlink">
    <!-- Generator: Sketch 47.1 (45422) - http://www.bohemiancoding.com/sketch -->
    <title>Page 1</title>
    <desc>Created with Sketch.</desc>
    <defs>
        <polygon id="path-1" points="71.3725215 134.809699 0 134.809699 0 0 71.3725215 0 142.745043 1.84912326e-14 142.745043 134.809699"></polygon>
    </defs>
    <g id="Page-1" stroke="none" stroke-width="1" fill="none" fill-rule="evenodd">
        <g id="m_at_page_2-" transform="translate(-889.000000, -449.000000)">
            <g id="Page-1" transform="translate(889.000000, 449.000000)">
                <mask id="mask-2" fill="white">
                    <use xlink:href="#path-1"></use>
                </mask>
                <g id="Clip-2"></g>
                <path d="M76.6237776,91.196241 C78.28368,77.2391928 84.7348932,64.4476988 95.0999612,54.7511205 C105.465029,45.0545422 118.634648,39.4909157 132.628868,38.8032289 C129.185195,67.527 105.42709,89.7561325 76.6237776,91.196241 M100.891623,112.042843 C92.669934,111.026928 85.1298456,106.983108 79.7120587,100.765627 C84.7546732,100.328422 89.6928751,99.3479639 94.4556506,97.8431205 C97.6843376,102.01153 99.8873807,106.875759 100.891623,112.042843 M71.373959,122.728988 C68.7555349,119.620084 66.4805054,116.273711 64.560544,112.717193 C67.0570451,110.74294 69.3447209,108.486 71.3746075,105.978253 C73.4041698,108.485675 75.6915213,110.742614 78.1876982,112.716867 C76.2677367,116.273386 73.9927073,119.620084 71.373959,122.728988 M48.2925916,97.8437711 C53.0556914,99.3486145 57.9942175,100.329072 63.0374805,100.765952 C57.6196937,106.983434 50.0796052,111.027253 41.8582401,112.043169 C42.86151,106.875434 45.0642288,102.01153 48.2925916,97.8437711 M10.1174283,38.8058313 C38.9181472,40.2485422 62.6762515,62.4740964 66.1199249,91.1959157 C37.3192061,89.7532048 13.5611018,67.5276506 10.1174283,38.8058313 M38.6431721,18.7620723 C44.2532469,21.6048795 49.3269907,25.2885904 53.7765281,29.7546506 C59.4410791,35.4340843 63.8445712,42.1147952 66.8647571,49.6116867 C69.7474556,56.7644096 71.2089091,64.2863494 71.2089091,71.968012 C71.2089091,72.049012 71.2082605,72.1248072 71.2079363,72.2035301 C67.4743717,62.9809157 61.7537231,54.6047349 54.2804329,47.6136867 C48.7948751,42.4820602 42.6342016,38.3445542 36.0156687,35.2834699 C36.1054896,29.6700723 36.9832696,24.1396265 38.6431721,18.7620723 M71.373959,12.0816867 C74.7618592,16.1043614 77.5761381,20.523253 79.7866392,25.2827349 C76.5822719,28.8194096 73.7718841,32.6534096 71.3729862,36.7554578 C68.9731154,32.6514578 66.1633762,28.8174578 62.9612787,25.2830602 C65.1717798,20.523253 67.9860587,16.1040361 71.373959,12.0816867 M106.729007,35.2841205 C100.110474,38.3455301 93.9504488,42.4823855 88.4655395,47.6136867 C85.1103898,50.7525181 82.1083626,54.1707831 79.4798864,57.8190361 C78.7781812,54.4495663 77.8248478,51.128241 76.6198864,47.8693735 C79.5979181,41.0832651 83.7455667,34.9955783 88.975281,29.7520482 C93.4189816,25.2885904 98.4917526,21.6052048 104.101503,18.7620723 C105.761406,24.1396265 106.639186,29.6703976 106.729007,35.2841205 M138.051195,29.0149157 C130.595415,28.7523976 123.279716,29.6746265 116.316492,31.6983253 C115.837231,24.3845783 114.19873,17.2149398 111.415256,10.3052169 C110.408744,7.80625301 107.572739,6.60003614 105.083696,7.60912048 C98.5381222,10.2622771 92.5350406,13.8275783 87.1665417,18.2412651 C83.939476,12.0693253 79.8022039,6.43445783 74.8130927,1.42937349 C73.9009408,0.514301205 72.6638773,0 71.373959,0 C70.0840406,0 68.8466528,0.514301205 67.9348252,1.42937349 C62.9453898,6.43478313 58.8077934,12.0699759 55.5807277,18.2425663 C50.2086619,13.8269277 44.205256,10.2616265 37.6606551,7.60912048 C35.1690179,6.59938554 32.3352832,7.80657831 31.329095,10.3052169 C28.5459454,17.2149398 26.9074442,24.3849036 26.4281834,31.698 C19.4659317,29.6749518 12.1508819,28.7527229 4.69445329,29.0145904 C2.00987959,29.1086024 -0.0906963719,31.3681446 0.00301564626,34.0613133 C0.64797483,52.5842892 8.44423107,69.7471807 21.9565961,82.3877349 C27.0935712,87.1934096 32.8239476,91.1233735 38.9671109,94.1174458 C34.4202946,100.842072 31.821002,108.757301 31.535002,116.981241 C31.4416143,119.673434 33.5408932,121.932651 36.2244941,122.027639 C36.7134828,122.04488 37.2173875,122.053337 37.7644193,122.053337 C44.2785395,122.053337 50.5838342,120.575494 56.280163,117.866386 C59.3986007,123.531506 63.2975395,128.728843 67.9345009,133.380325 C68.8466528,134.295398 70.0837163,134.809699 71.3736347,134.809699 C72.6635531,134.809699 73.9009408,134.295398 74.8127685,133.380325 C79.4497299,128.728518 83.3486687,123.531181 86.4674306,117.865735 C92.1640837,120.575169 98.4693785,122.053337 104.983823,122.053337 C105.531179,122.053337 106.035084,122.04488 106.524072,122.027639 C109.207673,121.932651 111.306952,119.673434 111.213564,116.981241 C110.927564,108.757952 108.327948,100.842398 103.779834,94.1161446 C109.922349,91.1220723 115.652725,87.1924337 120.788728,82.3877349 C134.300768,69.7471807 142.097025,52.5846145 142.741984,34.0613133 C142.836344,31.3684699 140.736093,29.1089277 138.051195,29.0149157" id="Fill-1" fill="#EEEEEE" mask="url(#mask-2)"></path>
            </g>
        </g>
    </g>
</svg>