<?xml version="1.0" encoding="UTF-8"?>
<svg width="118px" height="137px" viewBox="0 0 118 137" version="1.1" xmlns="http://www.w3.org/2000/svg" xmlns:xlink="http://www.w3.org/1999/xlink">
    <!-- Generator: Sketch 44 (41411) - http://www.bohemiancoding.com/sketch -->
    <title>Group 6</title>
    <desc>Created with Sketch.</desc>
    <defs></defs>
    <g id="Page-1" stroke="none" stroke-width="1" fill="none" fill-rule="evenodd">
        <g id="m_at_page_1" transform="translate(-902.000000, -1168.000000)" fill="#EEEEEE">
            <g id="Group-6" transform="translate(902.000000, 1168.000000)">
                <path d="M42.4740578,40.2803883 C42.4740578,7.30578862 67.882646,0 67.882646,0 C67.882646,0 67.882646,60.0672407 67.882646,89.1152607 C67.882646,136.22724 42.4740578,137 42.4740578,137 L42.4740578,40.2803883 Z M79.2596258,0 L117.941357,0 L117.941357,38.2237569 C117.941357,38.2237569 107.405422,29.3934688 100.77201,17.3516743 C94.1385978,5.30987984 79.2596258,0 79.2596258,0 Z M38.6817313,0 C38.6817313,0 23.8027593,5.30987984 17.1693471,17.3516743 C10.5359349,29.3934688 0,38.2237569 0,38.2237569 L0,0 L38.6817313,0 Z" id="Combined-Shape"></path>
            </g>
        </g>
    </g>
</svg>