<?xml version="1.0" encoding="UTF-8"?>
<svg width="95px" height="43px" viewBox="0 0 95 43" version="1.1" xmlns="http://www.w3.org/2000/svg" xmlns:xlink="http://www.w3.org/1999/xlink">
    <!-- Generator: Sketch 44 (41411) - http://www.bohemiancoding.com/sketch -->
    <title>&amp;</title>
    <desc>Created with Sketch.</desc>
    <defs></defs>
    <g id="Page-1" stroke="none" stroke-width="1" fill="none" fill-rule="evenodd">
        <g id="m_at_page_1" transform="translate(-912.000000, -3842.000000)" fill="#EEEEEE">
            <path d="M975.242607,3824 C968.258219,3824 959.207021,3826.49442 959.207021,3834.12024 C959.207021,3839.03782 963.126831,3841.3897 966.904102,3841.3897 C971.322797,3841.3897 975.100069,3838.32512 975.100069,3834.26278 C975.100069,3831.76835 973.674683,3828.84631 971.03772,3827.49219 C971.465336,3826.63696 973.03326,3826.20935 975.385146,3826.20935 C984.436344,3826.20935 992.347233,3832.62358 992.347233,3840.96209 C992.347233,3845.95094 989.567731,3850.4409 979.803841,3855.00213 C968.970911,3859.91971 952.935325,3863.55445 944.169204,3866.47649 C930.913119,3871.03772 924,3877.73703 924,3887.786 C924,3899.90178 933.83516,3904.89063 942.102395,3904.89063 C949.870746,3904.89063 959.492098,3900.68574 959.492098,3892.34723 C959.492098,3887.64346 956.427519,3884.43634 951.723747,3884.43634 C947.233783,3884.43634 943.741589,3887.35838 943.741589,3892.06216 C943.741589,3896.97974 947.51886,3898.90401 950.583439,3899.47416 C950.013285,3901.68351 944.454281,3902.68128 941.817318,3902.68128 C936.258315,3902.68128 928.418695,3898.61893 928.418695,3890.99312 C928.418695,3884.72142 933.977698,3881.08669 941.247164,3878.30719 C945.166974,3876.81053 978.093378,3866.40522 982.725881,3864.19587 C990.422963,3860.34733 996.55212,3853.64802 996.55212,3843.74159 C996.55212,3831.34074 987.215845,3824 975.242607,3824 Z" id="&amp;" transform="translate(960.276060, 3864.445313) rotate(-309.000000) translate(-960.276060, -3864.445313) "></path>
        </g>
    </g>
</svg>