<?xml version="1.0" encoding="UTF-8"?>
<svg width="78px" height="78px" viewBox="0 0 78 78" version="1.1" xmlns="http://www.w3.org/2000/svg" xmlns:xlink="http://www.w3.org/1999/xlink">
    <!-- Generator: Sketch 44 (41411) - http://www.bohemiancoding.com/sketch -->
    <title>ic_instagram</title>
    <desc>Created with Sketch.</desc>
    <defs></defs>
    <g id="Page-1" stroke="none" stroke-width="1" fill="none" fill-rule="evenodd">
        <g id="m_at_page_1" transform="translate(-921.000000, -3961.000000)">
            <g id="Group-29" transform="translate(807.000000, 3960.000000)">
                <g id="ic_instagram" transform="translate(114.000000, 1.000000)">
                    <circle id="Oval-5-Copy" fill="#333333" cx="39" cy="39" r="39"></circle>
                    <path d="M38.3636364,32.7245187 C35.1855927,32.7245187 32.6090909,35.3101787 32.6090909,38.4995187 C32.6090909,41.6888587 35.1855927,44.2745187 38.3636364,44.2745187 C41.54168,44.2745187 44.1181818,41.6888587 44.1181818,38.4995187 C44.1181818,35.3101787 41.54168,32.7245187 38.3636364,32.7245187 M38.3636364,28.8745188 C43.6608873,28.8745188 47.9545455,33.1849788 47.9545455,38.4995188 C47.9545455,43.8155988 43.6608873,48.1245188 38.3636364,48.1245188 C33.0663855,48.1245188 28.7727273,43.8155988 28.7727273,38.4995188 C28.7727273,33.1849788 33.0663855,28.8745188 38.3636364,28.8745188 M48.4333236,25.9870188 C49.7591709,25.9870188 50.8318182,27.0650188 50.8318182,28.3940388 C50.8318182,29.7230588 49.7591709,30.7995188 48.4333236,30.7995188 C47.1090109,30.7995188 46.0363636,29.7230588 46.0363636,28.3940388 C46.0363636,27.0650188 47.1090109,25.9870188 48.4333236,25.9870188 M29.9236364,23.0995187 C26.1102909,23.0995187 23.0181818,26.2026187 23.0181818,30.0295187 L23.0181818,46.9695187 C23.0181818,50.8010387 26.1056873,53.8995187 29.9236364,53.8995187 L46.8036364,53.8995187 C50.6169818,53.8995187 53.7090909,50.7964187 53.7090909,46.9695187 L53.7090909,30.0295187 C53.7090909,26.1995387 50.6215855,23.0995187 46.8036364,23.0995187 L29.9236364,23.0995187 M30.3072727,19.2495188 L46.42,19.2495188 C52.5581818,19.2495188 57.5454545,24.2545188 57.5454545,30.4145188 L57.5454545,46.5845188 C57.5454545,52.7506788 52.56432,57.7495188 46.42,57.7495188 L30.3072727,57.7495188 C24.1690909,57.7495188 19.1818182,52.7445188 19.1818182,46.5845188 L19.1818182,30.4145188 C19.1818182,24.2483588 24.1629527,19.2495188 30.3072727,19.2495188" id="Fill-1" fill="#FFFFFF"></path>
                </g>
            </g>
        </g>
    </g>
</svg>