<?xml version="1.0" encoding="UTF-8"?>
<svg width="78px" height="79px" viewBox="0 0 78 79" version="1.1" xmlns="http://www.w3.org/2000/svg" xmlns:xlink="http://www.w3.org/1999/xlink">
    <!-- Generator: Sketch 44 (41411) - http://www.bohemiancoding.com/sketch -->
    <title>ic_vkontakte</title>
    <desc>Created with Sketch.</desc>
    <defs></defs>
    <g id="Page-1" stroke="none" stroke-width="1" fill="none" fill-rule="evenodd">
        <g id="m_at_page_1" transform="translate(-1035.000000, -3960.000000)">
            <g id="Group-29" transform="translate(807.000000, 3960.000000)">
                <g id="ic_vkontakte" transform="translate(228.000000, 0.000000)">
                    <circle id="Oval-5-Copy-3" fill="#333333" cx="39" cy="39.7102932" r="39"></circle>
                    <path d="M54.6634254,43.763875 C58.0042588,46.6995 58.6948042,48.1063542 58.8019027,48.2892292 C60.1813951,50.4500417 57.292933,50.6136667 57.292933,50.6136667 L51.7318042,50.6954792 C51.7318042,50.6954792 50.5233497,50.9200625 48.9728194,49.8998125 C46.8804027,48.5539167 44.8759027,45.0279583 43.3893118,45.496375 C41.8579633,45.9647917 41.9011224,49.125 41.9011224,49.125 C41.9011224,49.125 41.9011224,49.5741667 41.5558497,49.9206667 C41.1674179,50.3072708 40.4145315,50.1645 40.4145315,50.1645 L37.9352815,50.1645 C37.9352815,50.1645 32.4380921,50.6954792 27.6298497,45.9455417 C22.3484557,40.7672917 17.6920694,30.5744167 17.6920694,30.5744167 C17.6920694,30.5744167 17.4331148,29.9632292 17.7144482,29.6167292 C18.0373421,29.2894792 18.9420845,29.2894792 18.9420845,29.2894792 L24.8932436,29.2894792 C24.8932436,29.2894792 25.4750921,29.2894792 25.8411451,29.6167292 C26.1640391,29.8397083 26.3574557,30.3097292 26.3574557,30.3097292 C26.3574557,30.3097292 27.3069557,32.5716042 28.60013,34.6522083 C31.07938,38.7075417 32.2222967,39.5850208 33.0199406,39.1567083 C34.3131148,38.5246667 33.9470618,33.4282292 33.9470618,33.4282292 C33.9470618,33.4282292 33.9678421,31.5738125 33.3220542,30.7572917 C32.8265239,30.12525 31.8770239,29.9215208 31.4678118,29.8814167 C31.1225391,29.8397083 31.6836073,29.1066042 32.394933,28.7601042 C33.4723118,28.2708333 35.3473345,28.2708333 37.5900088,28.2708333 C39.3355542,28.2708333 39.8310845,28.39275 40.4992512,28.5355208 C42.5692891,29.0039375 41.8579633,30.81825 41.8579633,35.139875 C41.8579633,36.5467292 41.6421679,38.4637083 42.6556073,39.1358542 C43.1079785,39.4213958 44.2301148,39.1775625 47.0322588,34.7131667 C48.325433,32.5924583 49.3164936,30.0851458 49.3164936,30.0851458 C49.3164936,30.0851458 49.5322891,29.6568333 49.855183,29.4531042 C50.2004557,29.2894792 50.6752057,29.2894792 50.6752057,29.2894792 L56.92688,29.2894792 C56.92688,29.2894792 58.8242815,29.08575 59.1263951,29.8814167 C59.4492891,30.7171875 58.4134709,32.695125 55.8495012,35.8954375 C51.6662664,41.1956042 51.1931148,40.7063333 54.6634254,43.763875" id="Fill-1" fill="#FFFFFF"></path>
                </g>
            </g>
        </g>
    </g>
</svg>